<svg xmlns="http://www.w3.org/2000/svg" width="2817" height="2723" viewBox="0 0 2817 2723">
  <path d="M 451 1957 L 447 1961 L 447 1962 L 446 1963 L 446 1964 L 445 1965 L 445 1966 L 444 1967 L 444 1968 L 443 1969 L 443 1970 L 442 1971 L 442 1973 L 441 1974 L 441 1975 L 440 1976 L 440 1977 L 439 1978 L 439 1979 L 438 1980 L 438 1981 L 437 1982 L 437 1983 L 436 1984 L 436 1985 L 434 1987 L 434 1988 L 433 1989 L 433 1990 L 432 1991 L 432 1992 L 431 1993 L 431 1994 L 429 1996 L 429 1997 L 428 1998 L 428 1999 L 427 2000 L 427 2001 L 425 2003 L 425 2004 L 423 2006 L 423 2007 L 422 2008 L 422 2009 L 420 2011 L 420 2012 L 418 2014 L 418 2015 L 415 2018 L 415 2019 L 412 2022 L 412 2023 L 408 2027 L 408 2028 L 402 2034 L 402 2035 L 390 2047 L 389 2047 L 383 2053 L 382 2053 L 378 2057 L 377 2057 L 374 2060 L 373 2060 L 371 2062 L 370 2062 L 367 2065 L 366 2065 L 364 2067 L 363 2067 L 362 2068 L 361 2068 L 359 2070 L 358 2070 L 356 2072 L 355 2072 L 354 2073 L 353 2073 L 352 2074 L 351 2074 L 349 2076 L 348 2076 L 347 2077 L 346 2077 L 345 2078 L 344 2078 L 343 2079 L 342 2079 L 341 2080 L 340 2080 L 338 2082 L 337 2082 L 336 2083 L 335 2083 L 334 2084 L 333 2084 L 332 2085 L 331 2085 L 330 2086 L 328 2086 L 327 2087 L 326 2087 L 325 2088 L 324 2088 L 323 2089 L 322 2089 L 321 2090 L 320 2090 L 319 2091 L 318 2091 L 317 2092 L 316 2092 L 313 2095 L 313 2096 L 312 2097 L 312 2104 L 313 2105 L 313 2106 L 316 2109 L 317 2109 L 318 2110 L 319 2110 L 320 2111 L 321 2111 L 322 2112 L 323 2112 L 324 2113 L 325 2113 L 326 2114 L 327 2114 L 328 2115 L 329 2115 L 330 2116 L 331 2116 L 332 2117 L 334 2117 L 336 2119 L 337 2119 L 338 2120 L 339 2120 L 340 2121 L 341 2121 L 342 2122 L 343 2122 L 344 2123 L 345 2123 L 346 2124 L 347 2124 L 348 2125 L 349 2125 L 351 2127 L 352 2127 L 353 2128 L 354 2128 L 356 2130 L 357 2130 L 358 2131 L 359 2131 L 361 2133 L 362 2133 L 364 2135 L 365 2135 L 367 2137 L 368 2137 L 370 2139 L 371 2139 L 373 2141 L 374 2141 L 377 2144 L 378 2144 L 382 2148 L 383 2148 L 390 2155 L 391 2155 L 401 2165 L 401 2166 L 408 2173 L 408 2174 L 412 2178 L 412 2179 L 415 2182 L 415 2183 L 417 2185 L 417 2186 L 420 2189 L 420 2190 L 422 2192 L 422 2193 L 423 2194 L 423 2195 L 425 2197 L 425 2198 L 427 2200 L 427 2201 L 428 2202 L 428 2203 L 429 2204 L 429 2205 L 431 2207 L 431 2208 L 432 2209 L 432 2210 L 433 2211 L 433 2212 L 434 2213 L 434 2214 L 436 2216 L 436 2217 L 437 2218 L 437 2219 L 438 2220 L 438 2221 L 439 2222 L 439 2223 L 440 2224 L 440 2225 L 441 2226 L 441 2227 L 442 2228 L 442 2230 L 443 2231 L 443 2232 L 444 2233 L 444 2234 L 445 2235 L 445 2236 L 446 2237 L 446 2238 L 447 2239 L 447 2240 L 451 2244 L 460 2244 L 461 2243 L 462 2243 L 463 2242 L 463 2241 L 465 2239 L 465 2238 L 466 2237 L 466 2235 L 467 2234 L 467 2233 L 468 2232 L 468 2231 L 469 2230 L 469 2229 L 470 2228 L 470 2227 L 471 2226 L 471 2225 L 472 2224 L 472 2223 L 473 2222 L 473 2221 L 474 2220 L 474 2219 L 475 2218 L 475 2217 L 476 2216 L 476 2215 L 477 2214 L 477 2213 L 478 2212 L 478 2211 L 480 2209 L 480 2208 L 481 2207 L 481 2206 L 482 2205 L 482 2204 L 484 2202 L 484 2201 L 485 2200 L 485 2199 L 487 2197 L 487 2196 L 488 2195 L 488 2194 L 490 2192 L 490 2191 L 492 2189 L 492 2188 L 494 2186 L 494 2185 L 497 2182 L 497 2181 L 500 2178 L 500 2177 L 505 2172 L 505 2171 L 527 2149 L 528 2149 L 532 2145 L 533 2145 L 536 2142 L 537 2142 L 540 2139 L 541 2139 L 543 2137 L 544 2137 L 546 2135 L 547 2135 L 549 2133 L 550 2133 L 551 2132 L 552 2132 L 554 2130 L 555 2130 L 557 2128 L 558 2128 L 559 2127 L 560 2127 L 561 2126 L 562 2126 L 564 2124 L 565 2124 L 566 2123 L 567 2123 L 568 2122 L 569 2122 L 570 2121 L 571 2121 L 572 2120 L 573 2120 L 574 2119 L 575 2119 L 576 2118 L 577 2118 L 578 2117 L 579 2117 L 580 2116 L 581 2116 L 582 2115 L 583 2115 L 584 2114 L 585 2114 L 586 2113 L 587 2113 L 588 2112 L 589 2112 L 590 2111 L 591 2111 L 592 2110 L 594 2110 L 596 2108 L 597 2108 L 598 2107 L 598 2106 L 599 2105 L 599 2102 L 600 2101 L 600 2100 L 599 2099 L 599 2096 L 597 2094 L 597 2093 L 596 2093 L 594 2091 L 592 2091 L 591 2090 L 590 2090 L 589 2089 L 588 2089 L 587 2088 L 586 2088 L 585 2087 L 584 2087 L 583 2086 L 582 2086 L 581 2085 L 580 2085 L 579 2084 L 578 2084 L 577 2083 L 576 2083 L 575 2082 L 574 2082 L 573 2081 L 572 2081 L 571 2080 L 570 2080 L 569 2079 L 568 2079 L 567 2078 L 566 2078 L 565 2077 L 564 2077 L 562 2075 L 561 2075 L 560 2074 L 559 2074 L 558 2073 L 557 2073 L 555 2071 L 554 2071 L 553 2070 L 552 2070 L 550 2068 L 549 2068 L 547 2066 L 546 2066 L 544 2064 L 543 2064 L 541 2062 L 540 2062 L 537 2059 L 536 2059 L 533 2056 L 532 2056 L 528 2052 L 527 2052 L 504 2029 L 504 2028 L 500 2024 L 500 2023 L 497 2020 L 497 2019 L 494 2016 L 494 2015 L 492 2013 L 492 2012 L 490 2010 L 490 2009 L 488 2007 L 488 2006 L 487 2005 L 487 2004 L 485 2002 L 485 2001 L 484 2000 L 484 1999 L 482 1997 L 482 1996 L 481 1995 L 481 1994 L 480 1993 L 480 1992 L 478 1990 L 478 1989 L 477 1988 L 477 1987 L 476 1986 L 476 1985 L 475 1984 L 475 1983 L 474 1982 L 474 1981 L 473 1980 L 473 1979 L 472 1978 L 472 1977 L 471 1976 L 471 1975 L 470 1974 L 470 1973 L 469 1972 L 469 1971 L 468 1970 L 468 1969 L 467 1968 L 467 1967 L 466 1966 L 466 1964 L 465 1963 L 465 1962 L 463 1960 L 463 1959 L 462 1959 L 460 1957 Z M 149 565 L 148 566 L 142 566 L 141 567 L 136 567 L 135 568 L 131 568 L 130 569 L 127 569 L 126 570 L 123 570 L 122 571 L 119 571 L 118 572 L 116 572 L 115 573 L 113 573 L 112 574 L 110 574 L 109 575 L 108 575 L 107 576 L 105 576 L 104 577 L 103 577 L 102 578 L 100 578 L 99 579 L 98 579 L 97 580 L 96 580 L 95 581 L 94 581 L 93 582 L 92 582 L 91 583 L 90 583 L 89 584 L 88 584 L 87 585 L 86 585 L 85 586 L 84 586 L 82 588 L 81 588 L 80 589 L 79 589 L 77 591 L 76 591 L 74 593 L 73 593 L 71 595 L 70 595 L 67 598 L 66 598 L 63 601 L 62 601 L 57 606 L 56 606 L 41 621 L 41 622 L 36 627 L 36 628 L 33 631 L 33 632 L 30 635 L 30 636 L 28 638 L 28 639 L 26 641 L 26 642 L 24 644 L 24 645 L 23 646 L 23 647 L 22 648 L 22 649 L 20 651 L 20 652 L 19 653 L 19 654 L 18 655 L 18 656 L 17 657 L 17 658 L 16 659 L 16 660 L 15 661 L 15 662 L 14 663 L 14 665 L 13 666 L 13 667 L 12 668 L 12 669 L 11 670 L 11 672 L 10 673 L 10 675 L 9 676 L 9 678 L 8 679 L 8 681 L 7 682 L 7 684 L 6 685 L 6 688 L 5 689 L 5 692 L 4 693 L 4 696 L 3 697 L 3 701 L 2 702 L 2 707 L 1 708 L 1 715 L 0 716 L 0 748 L 1 749 L 1 757 L 2 758 L 2 763 L 3 764 L 3 768 L 4 769 L 4 772 L 5 773 L 5 776 L 6 777 L 6 779 L 7 780 L 7 783 L 8 784 L 8 786 L 9 787 L 9 789 L 10 790 L 10 791 L 11 792 L 11 794 L 12 795 L 12 796 L 13 797 L 13 799 L 14 800 L 14 801 L 15 802 L 15 803 L 16 804 L 16 805 L 17 806 L 17 807 L 18 808 L 18 809 L 19 810 L 19 811 L 20 812 L 20 813 L 21 814 L 21 815 L 22 816 L 22 817 L 24 819 L 24 820 L 26 822 L 26 823 L 27 824 L 27 825 L 29 827 L 29 828 L 32 831 L 32 832 L 34 834 L 34 835 L 36 837 L 36 838 L 38 840 L 38 841 L 41 844 L 41 845 L 43 847 L 43 848 L 45 850 L 45 851 L 47 853 L 47 854 L 50 857 L 50 858 L 52 860 L 52 861 L 54 863 L 54 864 L 56 866 L 56 867 L 59 870 L 59 871 L 61 873 L 61 874 L 63 876 L 63 877 L 65 879 L 65 880 L 67 882 L 67 883 L 70 886 L 70 887 L 72 889 L 72 890 L 74 892 L 74 893 L 76 895 L 76 896 L 79 899 L 79 900 L 81 902 L 81 903 L 83 905 L 83 906 L 85 908 L 85 909 L 88 912 L 88 913 L 90 915 L 90 916 L 92 918 L 92 919 L 94 921 L 94 922 L 97 925 L 97 926 L 99 928 L 99 929 L 101 931 L 101 932 L 103 934 L 103 935 L 106 938 L 106 939 L 108 941 L 108 942 L 110 944 L 110 945 L 112 947 L 112 948 L 115 951 L 115 952 L 117 954 L 117 955 L 119 957 L 119 958 L 121 960 L 121 961 L 123 963 L 123 964 L 126 967 L 126 968 L 128 970 L 128 971 L 130 973 L 130 974 L 132 976 L 132 977 L 135 980 L 135 981 L 137 983 L 137 984 L 139 986 L 139 987 L 141 989 L 141 990 L 144 993 L 144 994 L 146 996 L 146 997 L 148 999 L 148 1000 L 150 1002 L 150 1003 L 153 1006 L 153 1007 L 155 1009 L 155 1010 L 157 1012 L 157 1013 L 159 1015 L 159 1016 L 162 1019 L 162 1020 L 164 1022 L 164 1023 L 166 1025 L 166 1026 L 168 1028 L 168 1029 L 171 1032 L 171 1033 L 173 1035 L 173 1036 L 175 1038 L 175 1039 L 177 1041 L 177 1042 L 179 1044 L 179 1045 L 182 1048 L 182 1049 L 184 1051 L 184 1052 L 186 1054 L 186 1055 L 188 1057 L 188 1058 L 191 1061 L 191 1062 L 193 1064 L 193 1065 L 195 1067 L 195 1068 L 197 1070 L 197 1071 L 200 1074 L 200 1075 L 202 1077 L 202 1078 L 204 1080 L 204 1081 L 206 1083 L 206 1084 L 209 1087 L 209 1088 L 211 1090 L 211 1091 L 213 1093 L 213 1094 L 215 1096 L 215 1097 L 218 1100 L 218 1101 L 220 1103 L 220 1104 L 222 1106 L 222 1107 L 224 1109 L 224 1110 L 226 1112 L 226 1113 L 229 1116 L 229 1117 L 231 1119 L 231 1120 L 233 1122 L 233 1123 L 235 1125 L 235 1126 L 238 1129 L 238 1130 L 240 1132 L 240 1133 L 242 1135 L 242 1136 L 244 1138 L 244 1139 L 247 1142 L 247 1143 L 249 1145 L 249 1146 L 251 1148 L 251 1149 L 253 1151 L 253 1152 L 256 1155 L 256 1156 L 258 1158 L 258 1159 L 260 1161 L 260 1162 L 262 1164 L 262 1165 L 265 1168 L 265 1169 L 267 1171 L 267 1172 L 269 1174 L 269 1175 L 271 1177 L 271 1178 L 274 1181 L 274 1182 L 276 1184 L 276 1185 L 278 1187 L 278 1188 L 280 1190 L 280 1191 L 282 1193 L 282 1194 L 285 1197 L 285 1198 L 287 1200 L 287 1201 L 289 1203 L 289 1204 L 291 1206 L 291 1207 L 294 1210 L 294 1211 L 296 1213 L 296 1214 L 298 1216 L 298 1217 L 300 1219 L 300 1220 L 303 1223 L 303 1224 L 305 1226 L 305 1227 L 307 1229 L 307 1230 L 309 1232 L 309 1233 L 312 1236 L 312 1237 L 314 1239 L 314 1240 L 316 1242 L 316 1243 L 318 1245 L 318 1246 L 321 1249 L 321 1250 L 323 1252 L 323 1253 L 325 1255 L 325 1256 L 327 1258 L 327 1259 L 330 1262 L 330 1263 L 332 1265 L 332 1266 L 334 1268 L 334 1269 L 336 1271 L 336 1272 L 338 1274 L 338 1275 L 341 1278 L 341 1279 L 343 1281 L 343 1282 L 345 1284 L 345 1285 L 347 1287 L 347 1288 L 350 1291 L 350 1292 L 352 1294 L 352 1295 L 354 1297 L 354 1298 L 356 1300 L 356 1301 L 359 1304 L 359 1305 L 361 1307 L 361 1308 L 363 1310 L 363 1311 L 365 1313 L 365 1314 L 368 1317 L 368 1318 L 370 1320 L 370 1321 L 372 1323 L 372 1324 L 374 1326 L 374 1327 L 377 1330 L 377 1331 L 379 1333 L 379 1334 L 381 1336 L 381 1337 L 383 1339 L 383 1340 L 386 1343 L 386 1344 L 388 1346 L 388 1347 L 390 1349 L 390 1350 L 392 1352 L 392 1353 L 394 1355 L 394 1356 L 397 1359 L 397 1360 L 399 1362 L 399 1363 L 401 1365 L 401 1366 L 403 1368 L 403 1369 L 406 1372 L 406 1373 L 408 1375 L 408 1376 L 410 1378 L 410 1379 L 412 1381 L 412 1382 L 415 1385 L 415 1386 L 417 1388 L 417 1389 L 419 1391 L 419 1392 L 421 1394 L 421 1395 L 424 1398 L 424 1399 L 426 1401 L 426 1402 L 428 1404 L 428 1405 L 430 1407 L 430 1408 L 433 1411 L 433 1412 L 435 1414 L 435 1415 L 437 1417 L 437 1418 L 439 1420 L 439 1421 L 442 1424 L 442 1425 L 444 1427 L 444 1428 L 446 1430 L 446 1431 L 448 1433 L 448 1434 L 450 1436 L 450 1437 L 453 1440 L 453 1441 L 455 1443 L 455 1444 L 457 1446 L 457 1447 L 459 1449 L 459 1450 L 462 1453 L 462 1454 L 464 1456 L 464 1457 L 466 1459 L 466 1460 L 468 1462 L 468 1463 L 471 1466 L 471 1467 L 473 1469 L 473 1470 L 475 1472 L 475 1473 L 477 1475 L 477 1476 L 480 1479 L 480 1480 L 482 1482 L 482 1483 L 484 1485 L 484 1486 L 486 1488 L 486 1489 L 489 1492 L 489 1493 L 491 1495 L 491 1496 L 493 1498 L 493 1499 L 495 1501 L 495 1502 L 498 1505 L 498 1506 L 500 1508 L 500 1509 L 502 1511 L 502 1512 L 504 1514 L 504 1515 L 506 1517 L 506 1518 L 509 1521 L 509 1522 L 511 1524 L 511 1525 L 513 1527 L 513 1528 L 515 1530 L 515 1531 L 518 1534 L 518 1535 L 520 1537 L 520 1538 L 522 1540 L 522 1541 L 524 1543 L 524 1544 L 527 1547 L 527 1548 L 529 1550 L 529 1551 L 531 1553 L 531 1554 L 533 1556 L 533 1557 L 536 1560 L 536 1561 L 538 1563 L 538 1564 L 540 1566 L 540 1567 L 542 1569 L 542 1570 L 545 1573 L 545 1574 L 547 1576 L 547 1577 L 549 1579 L 549 1580 L 551 1582 L 551 1583 L 554 1586 L 554 1587 L 556 1589 L 556 1590 L 558 1592 L 558 1593 L 560 1595 L 560 1596 L 562 1598 L 562 1599 L 565 1602 L 565 1603 L 567 1605 L 567 1606 L 569 1608 L 569 1609 L 571 1611 L 571 1612 L 574 1615 L 574 1616 L 576 1618 L 576 1619 L 578 1621 L 578 1622 L 580 1624 L 580 1625 L 583 1628 L 583 1629 L 585 1631 L 585 1632 L 587 1634 L 587 1635 L 589 1637 L 589 1638 L 592 1641 L 592 1642 L 594 1644 L 594 1645 L 596 1647 L 596 1648 L 598 1650 L 598 1651 L 601 1654 L 601 1655 L 603 1657 L 603 1658 L 605 1660 L 605 1661 L 607 1663 L 607 1664 L 610 1667 L 610 1668 L 612 1670 L 612 1671 L 614 1673 L 614 1674 L 616 1676 L 616 1677 L 618 1679 L 618 1680 L 621 1683 L 621 1684 L 623 1686 L 623 1687 L 625 1689 L 625 1690 L 627 1692 L 627 1693 L 630 1696 L 630 1697 L 632 1699 L 632 1700 L 634 1702 L 634 1703 L 636 1705 L 636 1706 L 639 1709 L 639 1710 L 641 1712 L 641 1713 L 643 1715 L 643 1716 L 645 1718 L 645 1719 L 648 1722 L 648 1723 L 650 1725 L 650 1726 L 652 1728 L 652 1729 L 654 1731 L 654 1732 L 657 1735 L 657 1736 L 659 1738 L 659 1739 L 661 1741 L 661 1742 L 663 1744 L 663 1745 L 666 1748 L 666 1749 L 668 1751 L 668 1752 L 670 1754 L 670 1755 L 672 1757 L 672 1758 L 674 1760 L 674 1761 L 677 1764 L 677 1765 L 679 1767 L 679 1768 L 681 1770 L 681 1771 L 683 1773 L 683 1774 L 686 1777 L 686 1778 L 688 1780 L 688 1781 L 690 1783 L 690 1784 L 692 1786 L 692 1787 L 695 1790 L 695 1791 L 697 1793 L 697 1794 L 699 1796 L 699 1797 L 701 1799 L 701 1800 L 704 1803 L 704 1804 L 706 1806 L 706 1807 L 708 1809 L 708 1810 L 710 1812 L 710 1813 L 713 1816 L 713 1817 L 715 1819 L 715 1820 L 717 1822 L 717 1823 L 719 1825 L 719 1826 L 722 1829 L 722 1830 L 724 1832 L 724 1833 L 726 1835 L 726 1836 L 728 1838 L 728 1839 L 730 1841 L 730 1842 L 733 1845 L 733 1846 L 735 1848 L 735 1849 L 737 1851 L 737 1852 L 739 1854 L 739 1855 L 742 1858 L 742 1859 L 744 1861 L 744 1862 L 746 1864 L 746 1865 L 748 1867 L 748 1868 L 751 1871 L 751 1872 L 753 1874 L 753 1875 L 755 1877 L 755 1878 L 757 1880 L 757 1881 L 760 1884 L 760 1885 L 762 1887 L 762 1888 L 764 1890 L 764 1891 L 766 1893 L 766 1894 L 769 1897 L 769 1898 L 771 1900 L 771 1901 L 773 1903 L 773 1904 L 775 1906 L 775 1907 L 778 1910 L 778 1911 L 780 1913 L 780 1914 L 782 1916 L 782 1917 L 784 1919 L 784 1920 L 786 1922 L 786 1923 L 787 1924 L 787 1937 L 788 1938 L 788 1952 L 789 1953 L 789 1967 L 790 1968 L 790 1983 L 791 1984 L 791 1998 L 792 1999 L 792 2013 L 793 2014 L 793 2029 L 794 2030 L 794 2044 L 795 2045 L 795 2059 L 796 2060 L 796 2074 L 797 2075 L 797 2090 L 798 2091 L 798 2105 L 799 2106 L 799 2120 L 800 2121 L 800 2135 L 801 2136 L 801 2151 L 802 2152 L 802 2166 L 803 2167 L 803 2181 L 804 2182 L 804 2196 L 805 2197 L 805 2212 L 806 2213 L 806 2227 L 807 2228 L 807 2242 L 808 2243 L 808 2257 L 809 2258 L 809 2273 L 810 2274 L 810 2288 L 811 2289 L 811 2303 L 812 2304 L 812 2319 L 813 2320 L 813 2334 L 814 2335 L 814 2349 L 815 2350 L 815 2364 L 816 2365 L 816 2380 L 817 2381 L 817 2395 L 818 2396 L 818 2410 L 819 2411 L 819 2425 L 820 2426 L 820 2441 L 821 2442 L 821 2456 L 822 2457 L 822 2471 L 823 2472 L 823 2486 L 824 2487 L 824 2502 L 825 2503 L 825 2517 L 826 2518 L 826 2532 L 827 2533 L 827 2548 L 828 2549 L 828 2563 L 829 2564 L 829 2578 L 830 2579 L 830 2593 L 831 2594 L 831 2609 L 832 2610 L 832 2624 L 833 2625 L 833 2639 L 834 2640 L 834 2654 L 835 2655 L 835 2670 L 836 2671 L 836 2685 L 837 2686 L 837 2700 L 838 2701 L 838 2715 L 839 2716 L 839 2722 L 1977 2722 L 1977 2715 L 1978 2714 L 1978 2700 L 1979 2699 L 1979 2684 L 1980 2683 L 1980 2669 L 1981 2668 L 1981 2654 L 1982 2653 L 1982 2639 L 1983 2638 L 1983 2623 L 1984 2622 L 1984 2608 L 1985 2607 L 1985 2593 L 1986 2592 L 1986 2578 L 1987 2577 L 1987 2562 L 1988 2561 L 1988 2547 L 1989 2546 L 1989 2532 L 1990 2531 L 1990 2516 L 1991 2515 L 1991 2501 L 1992 2500 L 1992 2486 L 1993 2485 L 1993 2471 L 1994 2470 L 1994 2455 L 1995 2454 L 1995 2440 L 1996 2439 L 1996 2425 L 1997 2424 L 1997 2410 L 1998 2409 L 1998 2394 L 1999 2393 L 1999 2379 L 2000 2378 L 2000 2364 L 2001 2363 L 2001 2348 L 2002 2347 L 2002 2333 L 2003 2332 L 2003 2318 L 2004 2317 L 2004 2303 L 2005 2302 L 2005 2287 L 2006 2286 L 2006 2272 L 2007 2271 L 2007 2257 L 2008 2256 L 2008 2242 L 2009 2241 L 2009 2226 L 2010 2225 L 2010 2211 L 2011 2210 L 2011 2196 L 2012 2195 L 2012 2181 L 2013 2180 L 2013 2165 L 2014 2164 L 2014 2150 L 2015 2149 L 2015 2135 L 2016 2134 L 2016 2119 L 2017 2118 L 2017 2104 L 2018 2103 L 2018 2089 L 2019 2088 L 2019 2074 L 2020 2073 L 2020 2058 L 2021 2057 L 2021 2043 L 2022 2042 L 2022 2028 L 2023 2027 L 2023 2013 L 2024 2012 L 2024 1997 L 2025 1996 L 2025 1982 L 2026 1981 L 2026 1967 L 2027 1966 L 2027 1951 L 2028 1950 L 2028 1936 L 2029 1935 L 2029 1923 L 2032 1920 L 2032 1919 L 2034 1917 L 2034 1916 L 2036 1914 L 2036 1913 L 2038 1911 L 2038 1910 L 2040 1908 L 2040 1907 L 2043 1904 L 2043 1903 L 2045 1901 L 2045 1900 L 2047 1898 L 2047 1897 L 2049 1895 L 2049 1894 L 2052 1891 L 2052 1890 L 2054 1888 L 2054 1887 L 2056 1885 L 2056 1884 L 2058 1882 L 2058 1881 L 2061 1878 L 2061 1877 L 2063 1875 L 2063 1874 L 2065 1872 L 2065 1871 L 2067 1869 L 2067 1868 L 2070 1865 L 2070 1864 L 2072 1862 L 2072 1861 L 2074 1859 L 2074 1858 L 2076 1856 L 2076 1855 L 2079 1852 L 2079 1851 L 2081 1849 L 2081 1848 L 2083 1846 L 2083 1845 L 2085 1843 L 2085 1842 L 2088 1839 L 2088 1838 L 2090 1836 L 2090 1835 L 2092 1833 L 2092 1832 L 2094 1830 L 2094 1829 L 2096 1827 L 2096 1826 L 2099 1823 L 2099 1822 L 2101 1820 L 2101 1819 L 2103 1817 L 2103 1816 L 2105 1814 L 2105 1813 L 2108 1810 L 2108 1809 L 2110 1807 L 2110 1806 L 2112 1804 L 2112 1803 L 2114 1801 L 2114 1800 L 2117 1797 L 2117 1796 L 2119 1794 L 2119 1793 L 2121 1791 L 2121 1790 L 2123 1788 L 2123 1787 L 2126 1784 L 2126 1783 L 2128 1781 L 2128 1780 L 2130 1778 L 2130 1777 L 2132 1775 L 2132 1774 L 2135 1771 L 2135 1770 L 2137 1768 L 2137 1767 L 2139 1765 L 2139 1764 L 2141 1762 L 2141 1761 L 2144 1758 L 2144 1757 L 2146 1755 L 2146 1754 L 2148 1752 L 2148 1751 L 2150 1749 L 2150 1748 L 2152 1746 L 2152 1745 L 2155 1742 L 2155 1741 L 2157 1739 L 2157 1738 L 2159 1736 L 2159 1735 L 2161 1733 L 2161 1732 L 2164 1729 L 2164 1728 L 2166 1726 L 2166 1725 L 2168 1723 L 2168 1722 L 2170 1720 L 2170 1719 L 2173 1716 L 2173 1715 L 2175 1713 L 2175 1712 L 2177 1710 L 2177 1709 L 2179 1707 L 2179 1706 L 2182 1703 L 2182 1702 L 2184 1700 L 2184 1699 L 2186 1697 L 2186 1696 L 2188 1694 L 2188 1693 L 2191 1690 L 2191 1689 L 2193 1687 L 2193 1686 L 2195 1684 L 2195 1683 L 2197 1681 L 2197 1680 L 2199 1678 L 2199 1677 L 2202 1674 L 2202 1673 L 2204 1671 L 2204 1670 L 2206 1668 L 2206 1667 L 2208 1665 L 2208 1664 L 2211 1661 L 2211 1660 L 2213 1658 L 2213 1657 L 2215 1655 L 2215 1654 L 2217 1652 L 2217 1651 L 2220 1648 L 2220 1647 L 2222 1645 L 2222 1644 L 2224 1642 L 2224 1641 L 2226 1639 L 2226 1638 L 2229 1635 L 2229 1634 L 2231 1632 L 2231 1631 L 2233 1629 L 2233 1628 L 2235 1626 L 2235 1625 L 2238 1622 L 2238 1621 L 2240 1619 L 2240 1618 L 2242 1616 L 2242 1615 L 2244 1613 L 2244 1612 L 2247 1609 L 2247 1608 L 2249 1606 L 2249 1605 L 2251 1603 L 2251 1602 L 2253 1600 L 2253 1599 L 2255 1597 L 2255 1596 L 2258 1593 L 2258 1592 L 2260 1590 L 2260 1589 L 2262 1587 L 2262 1586 L 2264 1584 L 2264 1583 L 2267 1580 L 2267 1579 L 2269 1577 L 2269 1576 L 2271 1574 L 2271 1573 L 2273 1571 L 2273 1570 L 2276 1567 L 2276 1566 L 2278 1564 L 2278 1563 L 2280 1561 L 2280 1560 L 2282 1558 L 2282 1557 L 2285 1554 L 2285 1553 L 2287 1551 L 2287 1550 L 2289 1548 L 2289 1547 L 2291 1545 L 2291 1544 L 2294 1541 L 2294 1540 L 2296 1538 L 2296 1537 L 2298 1535 L 2298 1534 L 2300 1532 L 2300 1531 L 2303 1528 L 2303 1527 L 2305 1525 L 2305 1524 L 2307 1522 L 2307 1521 L 2309 1519 L 2309 1518 L 2311 1516 L 2311 1515 L 2314 1512 L 2314 1511 L 2316 1509 L 2316 1508 L 2318 1506 L 2318 1505 L 2320 1503 L 2320 1502 L 2323 1499 L 2323 1498 L 2325 1496 L 2325 1495 L 2327 1493 L 2327 1492 L 2329 1490 L 2329 1489 L 2332 1486 L 2332 1485 L 2334 1483 L 2334 1482 L 2336 1480 L 2336 1479 L 2338 1477 L 2338 1476 L 2341 1473 L 2341 1472 L 2343 1470 L 2343 1469 L 2345 1467 L 2345 1466 L 2347 1464 L 2347 1463 L 2350 1460 L 2350 1459 L 2352 1457 L 2352 1456 L 2354 1454 L 2354 1453 L 2356 1451 L 2356 1450 L 2359 1447 L 2359 1446 L 2361 1444 L 2361 1443 L 2363 1441 L 2363 1440 L 2365 1438 L 2365 1437 L 2367 1435 L 2367 1434 L 2370 1431 L 2370 1430 L 2372 1428 L 2372 1427 L 2374 1425 L 2374 1424 L 2376 1422 L 2376 1421 L 2379 1418 L 2379 1417 L 2381 1415 L 2381 1414 L 2383 1412 L 2383 1411 L 2385 1409 L 2385 1408 L 2388 1405 L 2388 1404 L 2390 1402 L 2390 1401 L 2392 1399 L 2392 1398 L 2394 1396 L 2394 1395 L 2397 1392 L 2397 1391 L 2399 1389 L 2399 1388 L 2401 1386 L 2401 1385 L 2403 1383 L 2403 1382 L 2406 1379 L 2406 1378 L 2408 1376 L 2408 1375 L 2410 1373 L 2410 1372 L 2412 1370 L 2412 1369 L 2415 1366 L 2415 1365 L 2417 1363 L 2417 1362 L 2419 1360 L 2419 1359 L 2421 1357 L 2421 1356 L 2423 1354 L 2423 1353 L 2426 1350 L 2426 1349 L 2428 1347 L 2428 1346 L 2430 1344 L 2430 1343 L 2432 1341 L 2432 1340 L 2435 1337 L 2435 1336 L 2437 1334 L 2437 1333 L 2439 1331 L 2439 1330 L 2441 1328 L 2441 1327 L 2444 1324 L 2444 1323 L 2446 1321 L 2446 1320 L 2448 1318 L 2448 1317 L 2450 1315 L 2450 1314 L 2453 1311 L 2453 1310 L 2455 1308 L 2455 1307 L 2457 1305 L 2457 1304 L 2459 1302 L 2459 1301 L 2462 1298 L 2462 1297 L 2464 1295 L 2464 1294 L 2466 1292 L 2466 1291 L 2468 1289 L 2468 1288 L 2471 1285 L 2471 1284 L 2473 1282 L 2473 1281 L 2475 1279 L 2475 1278 L 2477 1276 L 2477 1275 L 2479 1273 L 2479 1272 L 2482 1269 L 2482 1268 L 2484 1266 L 2484 1265 L 2486 1263 L 2486 1262 L 2488 1260 L 2488 1259 L 2491 1256 L 2491 1255 L 2493 1253 L 2493 1252 L 2495 1250 L 2495 1249 L 2497 1247 L 2497 1246 L 2500 1243 L 2500 1242 L 2502 1240 L 2502 1239 L 2504 1237 L 2504 1236 L 2506 1234 L 2506 1233 L 2509 1230 L 2509 1229 L 2511 1227 L 2511 1226 L 2513 1224 L 2513 1223 L 2515 1221 L 2515 1220 L 2518 1217 L 2518 1216 L 2520 1214 L 2520 1213 L 2522 1211 L 2522 1210 L 2524 1208 L 2524 1207 L 2527 1204 L 2527 1203 L 2529 1201 L 2529 1200 L 2531 1198 L 2531 1197 L 2533 1195 L 2533 1194 L 2535 1192 L 2535 1191 L 2538 1188 L 2538 1187 L 2540 1185 L 2540 1184 L 2542 1182 L 2542 1181 L 2544 1179 L 2544 1178 L 2547 1175 L 2547 1174 L 2549 1172 L 2549 1171 L 2551 1169 L 2551 1168 L 2553 1166 L 2553 1165 L 2556 1162 L 2556 1161 L 2558 1159 L 2558 1158 L 2560 1156 L 2560 1155 L 2562 1153 L 2562 1152 L 2565 1149 L 2565 1148 L 2567 1146 L 2567 1145 L 2569 1143 L 2569 1142 L 2571 1140 L 2571 1139 L 2574 1136 L 2574 1135 L 2576 1133 L 2576 1132 L 2578 1130 L 2578 1129 L 2580 1127 L 2580 1126 L 2583 1123 L 2583 1122 L 2585 1120 L 2585 1119 L 2587 1117 L 2587 1116 L 2589 1114 L 2589 1113 L 2591 1111 L 2591 1110 L 2594 1107 L 2594 1106 L 2596 1104 L 2596 1103 L 2598 1101 L 2598 1100 L 2600 1098 L 2600 1097 L 2603 1094 L 2603 1093 L 2605 1091 L 2605 1090 L 2607 1088 L 2607 1087 L 2609 1085 L 2609 1084 L 2612 1081 L 2612 1080 L 2614 1078 L 2614 1077 L 2616 1075 L 2616 1074 L 2618 1072 L 2618 1071 L 2621 1068 L 2621 1067 L 2623 1065 L 2623 1064 L 2625 1062 L 2625 1061 L 2627 1059 L 2627 1058 L 2630 1055 L 2630 1054 L 2632 1052 L 2632 1051 L 2634 1049 L 2634 1048 L 2636 1046 L 2636 1045 L 2639 1042 L 2639 1041 L 2641 1039 L 2641 1038 L 2643 1036 L 2643 1035 L 2645 1033 L 2645 1032 L 2647 1030 L 2647 1029 L 2650 1026 L 2650 1025 L 2652 1023 L 2652 1022 L 2654 1020 L 2654 1019 L 2656 1017 L 2656 1016 L 2659 1013 L 2659 1012 L 2661 1010 L 2661 1009 L 2663 1007 L 2663 1006 L 2665 1004 L 2665 1003 L 2668 1000 L 2668 999 L 2670 997 L 2670 996 L 2672 994 L 2672 993 L 2674 991 L 2674 990 L 2677 987 L 2677 986 L 2679 984 L 2679 983 L 2681 981 L 2681 980 L 2683 978 L 2683 977 L 2686 974 L 2686 973 L 2688 971 L 2688 970 L 2690 968 L 2690 967 L 2692 965 L 2692 964 L 2695 961 L 2695 960 L 2697 958 L 2697 957 L 2699 955 L 2699 954 L 2701 952 L 2701 951 L 2703 949 L 2703 948 L 2706 945 L 2706 944 L 2708 942 L 2708 941 L 2710 939 L 2710 938 L 2712 936 L 2712 935 L 2715 932 L 2715 931 L 2717 929 L 2717 928 L 2719 926 L 2719 925 L 2721 923 L 2721 922 L 2724 919 L 2724 918 L 2726 916 L 2726 915 L 2728 913 L 2728 912 L 2730 910 L 2730 909 L 2733 906 L 2733 905 L 2735 903 L 2735 902 L 2737 900 L 2737 899 L 2739 897 L 2739 896 L 2742 893 L 2742 892 L 2744 890 L 2744 889 L 2746 887 L 2746 886 L 2748 884 L 2748 883 L 2751 880 L 2751 879 L 2753 877 L 2753 876 L 2755 874 L 2755 873 L 2757 871 L 2757 870 L 2759 868 L 2759 867 L 2762 864 L 2762 863 L 2764 861 L 2764 860 L 2766 858 L 2766 857 L 2768 855 L 2768 854 L 2771 851 L 2771 850 L 2773 848 L 2773 847 L 2775 845 L 2775 844 L 2777 842 L 2777 841 L 2780 838 L 2780 837 L 2782 835 L 2782 834 L 2784 832 L 2784 831 L 2786 829 L 2786 828 L 2788 826 L 2788 825 L 2790 823 L 2790 822 L 2792 820 L 2792 819 L 2793 818 L 2793 817 L 2795 815 L 2795 814 L 2796 813 L 2796 812 L 2797 811 L 2797 810 L 2798 809 L 2798 808 L 2799 807 L 2799 806 L 2800 805 L 2800 804 L 2801 803 L 2801 802 L 2802 801 L 2802 800 L 2803 799 L 2803 797 L 2804 796 L 2804 795 L 2805 794 L 2805 792 L 2806 791 L 2806 789 L 2807 788 L 2807 786 L 2808 785 L 2808 783 L 2809 782 L 2809 780 L 2810 779 L 2810 776 L 2811 775 L 2811 773 L 2812 772 L 2812 768 L 2813 767 L 2813 763 L 2814 762 L 2814 757 L 2815 756 L 2815 748 L 2816 747 L 2816 717 L 2815 716 L 2815 709 L 2814 708 L 2814 702 L 2813 701 L 2813 697 L 2812 696 L 2812 693 L 2811 692 L 2811 689 L 2810 688 L 2810 685 L 2809 684 L 2809 682 L 2808 681 L 2808 679 L 2807 678 L 2807 676 L 2806 675 L 2806 673 L 2805 672 L 2805 671 L 2804 670 L 2804 668 L 2803 667 L 2803 666 L 2802 665 L 2802 664 L 2801 663 L 2801 661 L 2800 660 L 2800 659 L 2799 658 L 2799 657 L 2798 656 L 2798 655 L 2797 654 L 2797 653 L 2796 652 L 2796 651 L 2794 649 L 2794 648 L 2793 647 L 2793 646 L 2791 644 L 2791 643 L 2790 642 L 2790 641 L 2788 639 L 2788 638 L 2786 636 L 2786 635 L 2783 632 L 2783 631 L 2779 627 L 2779 626 L 2774 621 L 2774 620 L 2761 607 L 2760 607 L 2754 601 L 2753 601 L 2750 598 L 2749 598 L 2746 595 L 2745 595 L 2743 593 L 2742 593 L 2740 591 L 2739 591 L 2737 589 L 2736 589 L 2735 588 L 2734 588 L 2732 586 L 2731 586 L 2730 585 L 2729 585 L 2728 584 L 2727 584 L 2726 583 L 2725 583 L 2724 582 L 2723 582 L 2722 581 L 2721 581 L 2720 580 L 2719 580 L 2718 579 L 2717 579 L 2716 578 L 2714 578 L 2713 577 L 2712 577 L 2711 576 L 2709 576 L 2708 575 L 2707 575 L 2706 574 L 2704 574 L 2703 573 L 2701 573 L 2700 572 L 2697 572 L 2696 571 L 2694 571 L 2693 570 L 2690 570 L 2689 569 L 2686 569 L 2685 568 L 2681 568 L 2680 567 L 2675 567 L 2674 566 L 2668 566 L 2667 565 L 2631 565 L 2630 566 L 2623 566 L 2622 567 L 2617 567 L 2616 568 L 2612 568 L 2611 569 L 2608 569 L 2607 570 L 2604 570 L 2603 571 L 2601 571 L 2600 572 L 2597 572 L 2596 573 L 2594 573 L 2593 574 L 2591 574 L 2590 575 L 2589 575 L 2588 576 L 2586 576 L 2585 577 L 2584 577 L 2583 578 L 2581 578 L 2580 579 L 2579 579 L 2578 580 L 2577 580 L 2576 581 L 2575 581 L 2574 582 L 2573 582 L 2572 583 L 2571 583 L 2570 584 L 2569 584 L 2568 585 L 2567 585 L 2566 586 L 2565 586 L 2563 588 L 2562 588 L 2561 589 L 2560 589 L 2558 591 L 2557 591 L 2555 593 L 2554 593 L 2552 595 L 2551 595 L 2548 598 L 2547 598 L 2544 601 L 2543 601 L 2537 607 L 2536 607 L 2523 620 L 2523 621 L 2516 628 L 2516 629 L 2509 636 L 2509 637 L 2502 644 L 2502 645 L 2495 652 L 2495 653 L 2489 659 L 2489 660 L 2482 667 L 2482 668 L 2475 675 L 2475 676 L 2468 683 L 2468 684 L 2461 691 L 2461 692 L 2454 699 L 2454 700 L 2447 707 L 2447 708 L 2440 715 L 2440 716 L 2433 723 L 2433 724 L 2426 731 L 2426 732 L 2419 739 L 2419 740 L 2412 747 L 2412 748 L 2405 755 L 2405 756 L 2399 762 L 2399 763 L 2392 770 L 2392 771 L 2385 778 L 2385 779 L 2378 786 L 2378 787 L 2371 794 L 2371 795 L 2364 802 L 2364 803 L 2357 810 L 2357 811 L 2350 818 L 2350 819 L 2343 826 L 2343 827 L 2336 834 L 2336 835 L 2329 842 L 2329 843 L 2322 850 L 2322 851 L 2315 858 L 2315 859 L 2309 865 L 2309 866 L 2302 873 L 2302 874 L 2295 881 L 2295 882 L 2288 889 L 2288 890 L 2281 897 L 2281 898 L 2274 905 L 2274 906 L 2267 913 L 2267 914 L 2260 921 L 2260 922 L 2253 929 L 2253 930 L 2246 937 L 2246 938 L 2239 945 L 2239 946 L 2232 953 L 2232 954 L 2225 961 L 2225 962 L 2219 968 L 2219 969 L 2212 976 L 2212 977 L 2205 984 L 2205 985 L 2198 992 L 2198 993 L 2191 1000 L 2191 1001 L 2184 1008 L 2184 1009 L 2177 1016 L 2177 1017 L 2170 1024 L 2170 1025 L 2163 1032 L 2163 1033 L 2156 1040 L 2156 1041 L 2149 1048 L 2149 1049 L 2142 1056 L 2142 1057 L 2135 1064 L 2135 1065 L 2129 1071 L 2129 1072 L 2122 1079 L 2122 1080 L 2115 1087 L 2115 1088 L 2108 1095 L 2108 1096 L 2101 1103 L 2101 1104 L 2094 1111 L 2094 1112 L 2087 1119 L 2087 1120 L 2080 1127 L 2080 1128 L 2073 1135 L 2073 1136 L 2066 1143 L 2066 1144 L 2059 1151 L 2059 1152 L 2052 1159 L 2052 1160 L 2045 1167 L 2045 1168 L 2039 1174 L 2039 1175 L 2032 1182 L 2032 1183 L 2025 1190 L 2025 1191 L 2018 1198 L 2018 1199 L 2011 1206 L 2011 1207 L 2004 1214 L 2004 1215 L 1997 1222 L 1997 1223 L 1990 1230 L 1990 1231 L 1983 1238 L 1983 1239 L 1976 1246 L 1976 1247 L 1969 1254 L 1969 1255 L 1962 1262 L 1962 1263 L 1955 1270 L 1955 1271 L 1949 1277 L 1949 1278 L 1942 1285 L 1942 1286 L 1935 1293 L 1935 1294 L 1928 1301 L 1928 1302 L 1921 1309 L 1921 1310 L 1914 1317 L 1914 1318 L 1907 1325 L 1907 1326 L 1900 1333 L 1900 1334 L 1893 1341 L 1893 1342 L 1886 1349 L 1886 1350 L 1879 1357 L 1879 1358 L 1872 1365 L 1872 1366 L 1865 1373 L 1865 1374 L 1859 1380 L 1859 1381 L 1852 1388 L 1852 1389 L 1845 1396 L 1845 1397 L 1838 1404 L 1838 1405 L 1831 1412 L 1831 1413 L 1824 1420 L 1824 1421 L 1817 1428 L 1817 1429 L 1810 1436 L 1810 1437 L 1803 1444 L 1803 1445 L 1796 1452 L 1796 1453 L 1789 1460 L 1789 1461 L 1782 1468 L 1782 1469 L 1775 1476 L 1775 1477 L 1769 1483 L 1769 1484 L 1762 1491 L 1762 1492 L 1755 1499 L 1755 1500 L 1748 1507 L 1748 1508 L 1741 1515 L 1741 1516 L 1734 1523 L 1734 1524 L 1727 1531 L 1727 1532 L 1721 1538 L 1095 1538 L 1088 1531 L 1088 1530 L 1081 1523 L 1081 1522 L 1074 1515 L 1074 1514 L 1068 1508 L 1068 1507 L 1061 1500 L 1061 1499 L 1054 1492 L 1054 1491 L 1047 1484 L 1047 1483 L 1040 1476 L 1040 1475 L 1033 1468 L 1033 1467 L 1026 1460 L 1026 1459 L 1019 1452 L 1019 1451 L 1012 1444 L 1012 1443 L 1005 1436 L 1005 1435 L 998 1428 L 998 1427 L 991 1420 L 991 1419 L 984 1412 L 984 1411 L 978 1405 L 978 1404 L 971 1397 L 971 1396 L 964 1389 L 964 1388 L 957 1381 L 957 1380 L 950 1373 L 950 1372 L 943 1365 L 943 1364 L 936 1357 L 936 1356 L 929 1349 L 929 1348 L 922 1341 L 922 1340 L 915 1333 L 915 1332 L 908 1325 L 908 1324 L 901 1317 L 901 1316 L 894 1309 L 894 1308 L 888 1302 L 888 1301 L 881 1294 L 881 1293 L 874 1286 L 874 1285 L 867 1278 L 867 1277 L 860 1270 L 860 1269 L 853 1262 L 853 1261 L 846 1254 L 846 1253 L 839 1246 L 839 1245 L 832 1238 L 832 1237 L 825 1230 L 825 1229 L 818 1222 L 818 1221 L 811 1214 L 811 1213 L 804 1206 L 804 1205 L 798 1199 L 798 1198 L 791 1191 L 791 1190 L 784 1183 L 784 1182 L 777 1175 L 777 1174 L 770 1167 L 770 1166 L 763 1159 L 763 1158 L 756 1151 L 756 1150 L 749 1143 L 749 1142 L 742 1135 L 742 1134 L 735 1127 L 735 1126 L 728 1119 L 728 1118 L 721 1111 L 721 1110 L 714 1103 L 714 1102 L 708 1096 L 708 1095 L 701 1088 L 701 1087 L 694 1080 L 694 1079 L 687 1072 L 687 1071 L 680 1064 L 680 1063 L 673 1056 L 673 1055 L 666 1048 L 666 1047 L 659 1040 L 659 1039 L 652 1032 L 652 1031 L 645 1024 L 645 1023 L 638 1016 L 638 1015 L 631 1008 L 631 1007 L 624 1000 L 624 999 L 618 993 L 618 992 L 611 985 L 611 984 L 604 977 L 604 976 L 597 969 L 597 968 L 590 961 L 590 960 L 583 953 L 583 952 L 576 945 L 576 944 L 569 937 L 569 936 L 562 929 L 562 928 L 555 921 L 555 920 L 548 913 L 548 912 L 541 905 L 541 904 L 534 897 L 534 896 L 528 890 L 528 889 L 521 882 L 521 881 L 514 874 L 514 873 L 507 866 L 507 865 L 500 858 L 500 857 L 493 850 L 493 849 L 486 842 L 486 841 L 479 834 L 479 833 L 472 826 L 472 825 L 465 818 L 465 817 L 458 810 L 458 809 L 451 802 L 451 801 L 444 794 L 444 793 L 438 787 L 438 786 L 431 779 L 431 778 L 424 771 L 424 770 L 417 763 L 417 762 L 410 755 L 410 754 L 403 747 L 403 746 L 396 739 L 396 738 L 389 731 L 389 730 L 382 723 L 382 722 L 375 715 L 375 714 L 368 707 L 368 706 L 361 699 L 361 698 L 354 691 L 354 690 L 348 684 L 348 683 L 341 676 L 341 675 L 334 668 L 334 667 L 327 660 L 327 659 L 320 652 L 320 651 L 313 644 L 313 643 L 306 636 L 306 635 L 299 628 L 299 627 L 292 620 L 292 619 L 280 607 L 279 607 L 274 602 L 273 602 L 269 598 L 268 598 L 265 595 L 264 595 L 262 593 L 261 593 L 259 591 L 258 591 L 257 590 L 256 590 L 254 588 L 253 588 L 252 587 L 251 587 L 249 585 L 248 585 L 247 584 L 246 584 L 245 583 L 244 583 L 243 582 L 242 582 L 241 581 L 240 581 L 239 580 L 238 580 L 237 579 L 235 579 L 234 578 L 233 578 L 232 577 L 231 577 L 230 576 L 228 576 L 227 575 L 225 575 L 224 574 L 222 574 L 221 573 L 219 573 L 218 572 L 216 572 L 215 571 L 213 571 L 212 570 L 209 570 L 208 569 L 205 569 L 204 568 L 200 568 L 199 567 L 194 567 L 193 566 L 186 566 L 185 565 Z M 1386 528 L 1385 529 L 1372 529 L 1371 530 L 1361 530 L 1360 531 L 1353 531 L 1352 532 L 1346 532 L 1345 533 L 1339 533 L 1338 534 L 1334 534 L 1333 535 L 1328 535 L 1327 536 L 1323 536 L 1322 537 L 1318 537 L 1317 538 L 1314 538 L 1313 539 L 1310 539 L 1309 540 L 1305 540 L 1304 541 L 1302 541 L 1301 542 L 1298 542 L 1297 543 L 1294 543 L 1293 544 L 1291 544 L 1290 545 L 1287 545 L 1286 546 L 1284 546 L 1283 547 L 1281 547 L 1280 548 L 1278 548 L 1277 549 L 1275 549 L 1274 550 L 1272 550 L 1271 551 L 1269 551 L 1268 552 L 1266 552 L 1265 553 L 1263 553 L 1262 554 L 1260 554 L 1259 555 L 1258 555 L 1257 556 L 1255 556 L 1254 557 L 1253 557 L 1252 558 L 1250 558 L 1249 559 L 1248 559 L 1247 560 L 1245 560 L 1244 561 L 1243 561 L 1242 562 L 1241 562 L 1240 563 L 1238 563 L 1237 564 L 1236 564 L 1235 565 L 1234 565 L 1233 566 L 1232 566 L 1231 567 L 1229 567 L 1228 568 L 1227 568 L 1226 569 L 1225 569 L 1224 570 L 1223 570 L 1222 571 L 1221 571 L 1220 572 L 1219 572 L 1218 573 L 1217 573 L 1216 574 L 1215 574 L 1214 575 L 1213 575 L 1212 576 L 1211 576 L 1210 577 L 1209 577 L 1207 579 L 1206 579 L 1205 580 L 1204 580 L 1203 581 L 1202 581 L 1201 582 L 1200 582 L 1198 584 L 1197 584 L 1196 585 L 1195 585 L 1193 587 L 1192 587 L 1191 588 L 1190 588 L 1188 590 L 1187 590 L 1186 591 L 1185 591 L 1183 593 L 1182 593 L 1180 595 L 1179 595 L 1178 596 L 1177 596 L 1175 598 L 1174 598 L 1172 600 L 1171 600 L 1168 603 L 1167 603 L 1165 605 L 1164 605 L 1162 607 L 1161 607 L 1158 610 L 1157 610 L 1154 613 L 1153 613 L 1150 616 L 1149 616 L 1145 620 L 1144 620 L 1140 624 L 1139 624 L 1133 630 L 1132 630 L 1125 637 L 1124 637 L 1096 665 L 1096 666 L 1088 674 L 1088 675 L 1083 680 L 1083 681 L 1078 686 L 1078 687 L 1075 690 L 1075 691 L 1071 695 L 1071 696 L 1068 699 L 1068 700 L 1066 702 L 1066 703 L 1063 706 L 1063 707 L 1061 709 L 1061 710 L 1059 712 L 1059 713 L 1057 715 L 1057 716 L 1055 718 L 1055 719 L 1053 721 L 1053 722 L 1051 724 L 1051 725 L 1050 726 L 1050 727 L 1048 729 L 1048 730 L 1046 732 L 1046 733 L 1045 734 L 1045 735 L 1044 736 L 1044 737 L 1042 739 L 1042 740 L 1041 741 L 1041 742 L 1040 743 L 1040 744 L 1038 746 L 1038 747 L 1037 748 L 1037 749 L 1036 750 L 1036 751 L 1035 752 L 1035 753 L 1034 754 L 1034 755 L 1033 756 L 1033 757 L 1032 758 L 1032 759 L 1031 760 L 1031 761 L 1030 762 L 1030 763 L 1029 764 L 1029 765 L 1028 766 L 1028 767 L 1027 768 L 1027 769 L 1026 770 L 1026 771 L 1025 772 L 1025 773 L 1024 774 L 1024 775 L 1023 776 L 1023 778 L 1022 779 L 1022 780 L 1021 781 L 1021 782 L 1020 783 L 1020 784 L 1019 785 L 1019 787 L 1018 788 L 1018 789 L 1017 790 L 1017 792 L 1016 793 L 1016 794 L 1015 795 L 1015 797 L 1014 798 L 1014 799 L 1013 800 L 1013 802 L 1012 803 L 1012 805 L 1011 806 L 1011 808 L 1010 809 L 1010 810 L 1009 811 L 1009 813 L 1008 814 L 1008 816 L 1007 817 L 1007 819 L 1006 820 L 1006 823 L 1005 824 L 1005 826 L 1004 827 L 1004 829 L 1003 830 L 1003 833 L 1002 834 L 1002 836 L 1001 837 L 1001 840 L 1000 841 L 1000 844 L 999 845 L 999 848 L 998 849 L 998 852 L 997 853 L 997 856 L 996 857 L 996 861 L 995 862 L 995 866 L 994 867 L 994 871 L 993 872 L 993 877 L 992 878 L 992 883 L 991 884 L 991 889 L 990 890 L 990 897 L 989 898 L 989 906 L 988 907 L 988 918 L 987 919 L 987 938 L 986 939 L 986 960 L 987 961 L 987 981 L 988 982 L 988 992 L 989 993 L 989 1001 L 990 1002 L 990 1009 L 991 1010 L 991 1015 L 992 1016 L 992 1022 L 993 1023 L 993 1027 L 994 1028 L 994 1032 L 995 1033 L 995 1037 L 996 1038 L 996 1042 L 997 1043 L 997 1046 L 998 1047 L 998 1050 L 999 1051 L 999 1054 L 1000 1055 L 1000 1058 L 1001 1059 L 1001 1062 L 1002 1063 L 1002 1065 L 1003 1066 L 1003 1069 L 1004 1070 L 1004 1072 L 1005 1073 L 1005 1075 L 1006 1076 L 1006 1079 L 1007 1080 L 1007 1082 L 1008 1083 L 1008 1085 L 1009 1086 L 1009 1088 L 1010 1089 L 1010 1090 L 1011 1091 L 1011 1093 L 1012 1094 L 1012 1096 L 1013 1097 L 1013 1099 L 1014 1100 L 1014 1101 L 1015 1102 L 1015 1104 L 1016 1105 L 1016 1106 L 1017 1107 L 1017 1109 L 1018 1110 L 1018 1111 L 1019 1112 L 1019 1114 L 1020 1115 L 1020 1116 L 1021 1117 L 1021 1118 L 1022 1119 L 1022 1121 L 1023 1122 L 1023 1123 L 1024 1124 L 1024 1125 L 1025 1126 L 1025 1127 L 1026 1128 L 1026 1129 L 1027 1130 L 1027 1131 L 1028 1132 L 1028 1133 L 1029 1134 L 1029 1135 L 1030 1136 L 1030 1137 L 1031 1138 L 1031 1139 L 1032 1140 L 1032 1141 L 1033 1142 L 1033 1143 L 1034 1144 L 1034 1145 L 1035 1146 L 1035 1147 L 1036 1148 L 1036 1149 L 1037 1150 L 1037 1151 L 1038 1152 L 1038 1153 L 1039 1154 L 1039 1155 L 1041 1157 L 1041 1158 L 1042 1159 L 1042 1160 L 1043 1161 L 1043 1162 L 1045 1164 L 1045 1165 L 1046 1166 L 1046 1167 L 1048 1169 L 1048 1170 L 1049 1171 L 1049 1172 L 1051 1174 L 1051 1175 L 1053 1177 L 1053 1178 L 1055 1180 L 1055 1181 L 1057 1183 L 1057 1184 L 1059 1186 L 1059 1187 L 1061 1189 L 1061 1190 L 1063 1192 L 1063 1193 L 1066 1196 L 1066 1197 L 1068 1199 L 1068 1200 L 1071 1203 L 1071 1204 L 1075 1208 L 1075 1209 L 1078 1212 L 1078 1213 L 1082 1217 L 1082 1218 L 1088 1224 L 1088 1225 L 1095 1232 L 1095 1233 L 1124 1262 L 1125 1262 L 1133 1270 L 1134 1270 L 1139 1275 L 1140 1275 L 1144 1279 L 1145 1279 L 1149 1283 L 1150 1283 L 1153 1286 L 1154 1286 L 1157 1289 L 1158 1289 L 1161 1292 L 1162 1292 L 1164 1294 L 1165 1294 L 1168 1297 L 1169 1297 L 1171 1299 L 1172 1299 L 1174 1301 L 1175 1301 L 1177 1303 L 1178 1303 L 1180 1305 L 1181 1305 L 1182 1306 L 1183 1306 L 1185 1308 L 1186 1308 L 1188 1310 L 1189 1310 L 1190 1311 L 1191 1311 L 1193 1313 L 1194 1313 L 1195 1314 L 1196 1314 L 1197 1315 L 1198 1315 L 1200 1317 L 1201 1317 L 1202 1318 L 1203 1318 L 1204 1319 L 1205 1319 L 1206 1320 L 1207 1320 L 1209 1322 L 1210 1322 L 1211 1323 L 1212 1323 L 1213 1324 L 1214 1324 L 1215 1325 L 1216 1325 L 1217 1326 L 1218 1326 L 1219 1327 L 1220 1327 L 1221 1328 L 1222 1328 L 1223 1329 L 1224 1329 L 1225 1330 L 1226 1330 L 1227 1331 L 1228 1331 L 1229 1332 L 1230 1332 L 1231 1333 L 1233 1333 L 1234 1334 L 1235 1334 L 1236 1335 L 1237 1335 L 1238 1336 L 1239 1336 L 1240 1337 L 1242 1337 L 1243 1338 L 1244 1338 L 1245 1339 L 1247 1339 L 1248 1340 L 1249 1340 L 1250 1341 L 1251 1341 L 1252 1342 L 1254 1342 L 1255 1343 L 1257 1343 L 1258 1344 L 1259 1344 L 1260 1345 L 1262 1345 L 1263 1346 L 1265 1346 L 1266 1347 L 1268 1347 L 1269 1348 L 1270 1348 L 1271 1349 L 1273 1349 L 1274 1350 L 1276 1350 L 1277 1351 L 1280 1351 L 1281 1352 L 1283 1352 L 1284 1353 L 1286 1353 L 1287 1354 L 1289 1354 L 1290 1355 L 1293 1355 L 1294 1356 L 1297 1356 L 1298 1357 L 1300 1357 L 1301 1358 L 1304 1358 L 1305 1359 L 1308 1359 L 1309 1360 L 1313 1360 L 1314 1361 L 1317 1361 L 1318 1362 L 1322 1362 L 1323 1363 L 1327 1363 L 1328 1364 L 1332 1364 L 1333 1365 L 1338 1365 L 1339 1366 L 1344 1366 L 1345 1367 L 1352 1367 L 1353 1368 L 1360 1368 L 1361 1369 L 1370 1369 L 1371 1370 L 1384 1370 L 1385 1371 L 1431 1371 L 1432 1370 L 1445 1370 L 1446 1369 L 1455 1369 L 1456 1368 L 1463 1368 L 1464 1367 L 1470 1367 L 1471 1366 L 1477 1366 L 1478 1365 L 1483 1365 L 1484 1364 L 1488 1364 L 1489 1363 L 1493 1363 L 1494 1362 L 1498 1362 L 1499 1361 L 1502 1361 L 1503 1360 L 1507 1360 L 1508 1359 L 1511 1359 L 1512 1358 L 1515 1358 L 1516 1357 L 1518 1357 L 1519 1356 L 1522 1356 L 1523 1355 L 1525 1355 L 1526 1354 L 1529 1354 L 1530 1353 L 1532 1353 L 1533 1352 L 1535 1352 L 1536 1351 L 1538 1351 L 1539 1350 L 1541 1350 L 1542 1349 L 1544 1349 L 1545 1348 L 1547 1348 L 1548 1347 L 1550 1347 L 1551 1346 L 1553 1346 L 1554 1345 L 1556 1345 L 1557 1344 L 1558 1344 L 1559 1343 L 1561 1343 L 1562 1342 L 1563 1342 L 1564 1341 L 1566 1341 L 1567 1340 L 1568 1340 L 1569 1339 L 1571 1339 L 1572 1338 L 1573 1338 L 1574 1337 L 1575 1337 L 1576 1336 L 1578 1336 L 1579 1335 L 1580 1335 L 1581 1334 L 1582 1334 L 1583 1333 L 1584 1333 L 1585 1332 L 1587 1332 L 1588 1331 L 1589 1331 L 1590 1330 L 1591 1330 L 1592 1329 L 1593 1329 L 1594 1328 L 1595 1328 L 1596 1327 L 1597 1327 L 1598 1326 L 1599 1326 L 1600 1325 L 1601 1325 L 1602 1324 L 1603 1324 L 1604 1323 L 1605 1323 L 1607 1321 L 1608 1321 L 1609 1320 L 1610 1320 L 1611 1319 L 1612 1319 L 1613 1318 L 1614 1318 L 1615 1317 L 1616 1317 L 1618 1315 L 1619 1315 L 1620 1314 L 1621 1314 L 1623 1312 L 1624 1312 L 1625 1311 L 1626 1311 L 1628 1309 L 1629 1309 L 1630 1308 L 1631 1308 L 1633 1306 L 1634 1306 L 1636 1304 L 1637 1304 L 1638 1303 L 1639 1303 L 1641 1301 L 1642 1301 L 1644 1299 L 1645 1299 L 1648 1296 L 1649 1296 L 1651 1294 L 1652 1294 L 1654 1292 L 1655 1292 L 1658 1289 L 1659 1289 L 1662 1286 L 1663 1286 L 1666 1283 L 1667 1283 L 1671 1279 L 1672 1279 L 1677 1274 L 1678 1274 L 1683 1269 L 1684 1269 L 1692 1261 L 1693 1261 L 1720 1234 L 1720 1233 L 1727 1226 L 1727 1225 L 1733 1219 L 1733 1218 L 1737 1214 L 1737 1213 L 1741 1209 L 1741 1208 L 1744 1205 L 1744 1204 L 1747 1201 L 1747 1200 L 1750 1197 L 1750 1196 L 1752 1194 L 1752 1193 L 1755 1190 L 1755 1189 L 1757 1187 L 1757 1186 L 1759 1184 L 1759 1183 L 1761 1181 L 1761 1180 L 1763 1178 L 1763 1177 L 1765 1175 L 1765 1174 L 1766 1173 L 1766 1172 L 1768 1170 L 1768 1169 L 1769 1168 L 1769 1167 L 1771 1165 L 1771 1164 L 1772 1163 L 1772 1162 L 1774 1160 L 1774 1159 L 1775 1158 L 1775 1157 L 1776 1156 L 1776 1155 L 1778 1153 L 1778 1152 L 1779 1151 L 1779 1150 L 1780 1149 L 1780 1148 L 1781 1147 L 1781 1146 L 1782 1145 L 1782 1144 L 1783 1143 L 1783 1142 L 1784 1141 L 1784 1140 L 1785 1139 L 1785 1138 L 1786 1137 L 1786 1136 L 1787 1135 L 1787 1134 L 1788 1133 L 1788 1132 L 1789 1131 L 1789 1130 L 1790 1129 L 1790 1128 L 1791 1127 L 1791 1126 L 1792 1125 L 1792 1124 L 1793 1123 L 1793 1121 L 1794 1120 L 1794 1119 L 1795 1118 L 1795 1117 L 1796 1116 L 1796 1114 L 1797 1113 L 1797 1112 L 1798 1111 L 1798 1110 L 1799 1109 L 1799 1107 L 1800 1106 L 1800 1105 L 1801 1104 L 1801 1102 L 1802 1101 L 1802 1099 L 1803 1098 L 1803 1097 L 1804 1096 L 1804 1094 L 1805 1093 L 1805 1091 L 1806 1090 L 1806 1088 L 1807 1087 L 1807 1085 L 1808 1084 L 1808 1082 L 1809 1081 L 1809 1079 L 1810 1078 L 1810 1076 L 1811 1075 L 1811 1073 L 1812 1072 L 1812 1069 L 1813 1068 L 1813 1066 L 1814 1065 L 1814 1062 L 1815 1061 L 1815 1059 L 1816 1058 L 1816 1055 L 1817 1054 L 1817 1051 L 1818 1050 L 1818 1047 L 1819 1046 L 1819 1042 L 1820 1041 L 1820 1038 L 1821 1037 L 1821 1033 L 1822 1032 L 1822 1027 L 1823 1026 L 1823 1022 L 1824 1021 L 1824 1016 L 1825 1015 L 1825 1009 L 1826 1008 L 1826 1001 L 1827 1000 L 1827 992 L 1828 991 L 1828 980 L 1829 979 L 1829 953 L 1830 952 L 1830 947 L 1829 946 L 1829 920 L 1828 919 L 1828 908 L 1827 907 L 1827 899 L 1826 898 L 1826 891 L 1825 890 L 1825 884 L 1824 883 L 1824 878 L 1823 877 L 1823 873 L 1822 872 L 1822 867 L 1821 866 L 1821 862 L 1820 861 L 1820 858 L 1819 857 L 1819 853 L 1818 852 L 1818 849 L 1817 848 L 1817 845 L 1816 844 L 1816 841 L 1815 840 L 1815 838 L 1814 837 L 1814 834 L 1813 833 L 1813 831 L 1812 830 L 1812 827 L 1811 826 L 1811 824 L 1810 823 L 1810 821 L 1809 820 L 1809 818 L 1808 817 L 1808 815 L 1807 814 L 1807 812 L 1806 811 L 1806 809 L 1805 808 L 1805 806 L 1804 805 L 1804 803 L 1803 802 L 1803 801 L 1802 800 L 1802 798 L 1801 797 L 1801 796 L 1800 795 L 1800 793 L 1799 792 L 1799 791 L 1798 790 L 1798 788 L 1797 787 L 1797 786 L 1796 785 L 1796 783 L 1795 782 L 1795 781 L 1794 780 L 1794 779 L 1793 778 L 1793 777 L 1792 776 L 1792 774 L 1791 773 L 1791 772 L 1790 771 L 1790 770 L 1789 769 L 1789 768 L 1788 767 L 1788 766 L 1787 765 L 1787 764 L 1786 763 L 1786 762 L 1785 761 L 1785 760 L 1784 759 L 1784 758 L 1783 757 L 1783 756 L 1782 755 L 1782 754 L 1781 753 L 1781 752 L 1780 751 L 1780 750 L 1779 749 L 1779 748 L 1777 746 L 1777 745 L 1776 744 L 1776 743 L 1775 742 L 1775 741 L 1774 740 L 1774 739 L 1772 737 L 1772 736 L 1771 735 L 1771 734 L 1769 732 L 1769 731 L 1768 730 L 1768 729 L 1766 727 L 1766 726 L 1764 724 L 1764 723 L 1763 722 L 1763 721 L 1761 719 L 1761 718 L 1759 716 L 1759 715 L 1757 713 L 1757 712 L 1755 710 L 1755 709 L 1752 706 L 1752 705 L 1750 703 L 1750 702 L 1747 699 L 1747 698 L 1744 695 L 1744 694 L 1741 691 L 1741 690 L 1737 686 L 1737 685 L 1733 681 L 1733 680 L 1727 674 L 1727 673 L 1719 665 L 1719 664 L 1693 638 L 1692 638 L 1684 630 L 1683 630 L 1678 625 L 1677 625 L 1672 620 L 1671 620 L 1668 617 L 1667 617 L 1663 613 L 1662 613 L 1659 610 L 1658 610 L 1656 608 L 1655 608 L 1652 605 L 1651 605 L 1649 603 L 1648 603 L 1646 601 L 1645 601 L 1643 599 L 1642 599 L 1640 597 L 1639 597 L 1637 595 L 1636 595 L 1634 593 L 1633 593 L 1631 591 L 1630 591 L 1629 590 L 1628 590 L 1626 588 L 1625 588 L 1624 587 L 1623 587 L 1621 585 L 1620 585 L 1619 584 L 1618 584 L 1617 583 L 1616 583 L 1614 581 L 1613 581 L 1612 580 L 1611 580 L 1610 579 L 1609 579 L 1608 578 L 1607 578 L 1605 576 L 1604 576 L 1603 575 L 1602 575 L 1601 574 L 1600 574 L 1599 573 L 1598 573 L 1597 572 L 1596 572 L 1595 571 L 1594 571 L 1593 570 L 1592 570 L 1591 569 L 1590 569 L 1589 568 L 1587 568 L 1586 567 L 1585 567 L 1584 566 L 1583 566 L 1582 565 L 1581 565 L 1580 564 L 1579 564 L 1578 563 L 1576 563 L 1575 562 L 1574 562 L 1573 561 L 1572 561 L 1571 560 L 1569 560 L 1568 559 L 1567 559 L 1566 558 L 1564 558 L 1563 557 L 1562 557 L 1561 556 L 1559 556 L 1558 555 L 1556 555 L 1555 554 L 1554 554 L 1553 553 L 1551 553 L 1550 552 L 1548 552 L 1547 551 L 1545 551 L 1544 550 L 1542 550 L 1541 549 L 1539 549 L 1538 548 L 1536 548 L 1535 547 L 1533 547 L 1532 546 L 1530 546 L 1529 545 L 1526 545 L 1525 544 L 1523 544 L 1522 543 L 1519 543 L 1518 542 L 1515 542 L 1514 541 L 1511 541 L 1510 540 L 1507 540 L 1506 539 L 1503 539 L 1502 538 L 1499 538 L 1498 537 L 1494 537 L 1493 536 L 1489 536 L 1488 535 L 1483 535 L 1482 534 L 1477 534 L 1476 533 L 1471 533 L 1470 532 L 1464 532 L 1463 531 L 1455 531 L 1454 530 L 1445 530 L 1444 529 L 1430 529 L 1429 528 Z M 2140 293 L 2139 294 L 2138 294 L 2134 298 L 2134 299 L 2133 300 L 2133 301 L 2132 302 L 2132 303 L 2131 304 L 2131 305 L 2130 306 L 2130 308 L 2129 309 L 2129 310 L 2128 311 L 2128 312 L 2127 313 L 2127 314 L 2126 315 L 2126 316 L 2125 317 L 2125 318 L 2124 319 L 2124 320 L 2123 321 L 2123 322 L 2122 323 L 2122 324 L 2121 325 L 2121 326 L 2120 327 L 2120 328 L 2119 329 L 2119 330 L 2118 331 L 2118 332 L 2116 334 L 2116 335 L 2115 336 L 2115 337 L 2114 338 L 2114 339 L 2113 340 L 2113 341 L 2111 343 L 2111 344 L 2110 345 L 2110 346 L 2108 348 L 2108 349 L 2107 350 L 2107 351 L 2105 353 L 2105 354 L 2103 356 L 2103 357 L 2101 359 L 2101 360 L 2099 362 L 2099 363 L 2097 365 L 2097 366 L 2094 369 L 2094 370 L 2091 373 L 2091 374 L 2088 377 L 2088 378 L 2083 383 L 2083 384 L 2060 407 L 2059 407 L 2054 412 L 2053 412 L 2049 416 L 2048 416 L 2045 419 L 2044 419 L 2042 421 L 2041 421 L 2038 424 L 2037 424 L 2035 426 L 2034 426 L 2032 428 L 2031 428 L 2030 429 L 2029 429 L 2027 431 L 2026 431 L 2024 433 L 2023 433 L 2022 434 L 2021 434 L 2019 436 L 2018 436 L 2017 437 L 2016 437 L 2015 438 L 2014 438 L 2012 440 L 2011 440 L 2010 441 L 2009 441 L 2008 442 L 2007 442 L 2006 443 L 2005 443 L 2004 444 L 2003 444 L 2002 445 L 2001 445 L 2000 446 L 1999 446 L 1998 447 L 1997 447 L 1996 448 L 1995 448 L 1994 449 L 1993 449 L 1992 450 L 1991 450 L 1990 451 L 1989 451 L 1988 452 L 1987 452 L 1986 453 L 1985 453 L 1984 454 L 1983 454 L 1982 455 L 1981 455 L 1980 456 L 1979 456 L 1978 457 L 1977 457 L 1976 458 L 1974 458 L 1970 462 L 1970 463 L 1969 464 L 1969 466 L 1968 467 L 1968 471 L 1969 472 L 1969 474 L 1970 475 L 1970 476 L 1973 479 L 1974 479 L 1975 480 L 1976 480 L 1977 481 L 1978 481 L 1979 482 L 1980 482 L 1981 483 L 1982 483 L 1983 484 L 1984 484 L 1985 485 L 1986 485 L 1987 486 L 1989 486 L 1990 487 L 1991 487 L 1992 488 L 1993 488 L 1994 489 L 1995 489 L 1996 490 L 1997 490 L 1998 491 L 1999 491 L 2000 492 L 2001 492 L 2002 493 L 2003 493 L 2005 495 L 2006 495 L 2007 496 L 2008 496 L 2009 497 L 2010 497 L 2011 498 L 2012 498 L 2013 499 L 2014 499 L 2016 501 L 2017 501 L 2018 502 L 2019 502 L 2021 504 L 2022 504 L 2023 505 L 2024 505 L 2026 507 L 2027 507 L 2028 508 L 2029 508 L 2031 510 L 2032 510 L 2034 512 L 2035 512 L 2037 514 L 2038 514 L 2040 516 L 2041 516 L 2044 519 L 2045 519 L 2048 522 L 2049 522 L 2052 525 L 2053 525 L 2058 530 L 2059 530 L 2083 554 L 2083 555 L 2088 560 L 2088 561 L 2092 565 L 2092 566 L 2095 569 L 2095 570 L 2097 572 L 2097 573 L 2099 575 L 2099 576 L 2101 578 L 2101 579 L 2103 581 L 2103 582 L 2105 584 L 2105 585 L 2107 587 L 2107 588 L 2108 589 L 2108 590 L 2110 592 L 2110 593 L 2111 594 L 2111 595 L 2113 597 L 2113 598 L 2114 599 L 2114 600 L 2115 601 L 2115 602 L 2116 603 L 2116 604 L 2118 606 L 2118 607 L 2119 608 L 2119 609 L 2120 610 L 2120 611 L 2121 612 L 2121 613 L 2122 614 L 2122 615 L 2123 616 L 2123 617 L 2124 618 L 2124 619 L 2125 620 L 2125 621 L 2126 622 L 2126 623 L 2127 624 L 2127 625 L 2128 626 L 2128 627 L 2129 628 L 2129 629 L 2130 630 L 2130 631 L 2131 632 L 2131 634 L 2132 635 L 2132 636 L 2133 637 L 2133 638 L 2134 639 L 2134 640 L 2138 644 L 2140 644 L 2141 645 L 2148 645 L 2149 644 L 2151 644 L 2155 640 L 2155 639 L 2156 638 L 2156 637 L 2157 636 L 2157 634 L 2158 633 L 2158 632 L 2159 631 L 2159 630 L 2160 629 L 2160 628 L 2161 627 L 2161 626 L 2162 625 L 2162 624 L 2163 623 L 2163 622 L 2164 621 L 2164 620 L 2165 619 L 2165 618 L 2166 617 L 2166 616 L 2167 615 L 2167 614 L 2168 613 L 2168 612 L 2169 611 L 2169 610 L 2170 609 L 2170 608 L 2171 607 L 2171 606 L 2172 605 L 2172 604 L 2174 602 L 2174 601 L 2175 600 L 2175 599 L 2176 598 L 2176 597 L 2177 596 L 2177 595 L 2179 593 L 2179 592 L 2180 591 L 2180 590 L 2182 588 L 2182 587 L 2184 585 L 2184 584 L 2185 583 L 2185 582 L 2187 580 L 2187 579 L 2189 577 L 2189 576 L 2192 573 L 2192 572 L 2194 570 L 2194 569 L 2197 566 L 2197 565 L 2201 561 L 2201 560 L 2205 556 L 2205 555 L 2216 544 L 2216 543 L 2218 541 L 2219 541 L 2230 530 L 2231 530 L 2236 525 L 2237 525 L 2240 522 L 2241 522 L 2244 519 L 2245 519 L 2248 516 L 2249 516 L 2251 514 L 2252 514 L 2254 512 L 2255 512 L 2257 510 L 2258 510 L 2260 508 L 2261 508 L 2263 506 L 2264 506 L 2265 505 L 2266 505 L 2268 503 L 2269 503 L 2270 502 L 2271 502 L 2272 501 L 2273 501 L 2275 499 L 2276 499 L 2277 498 L 2278 498 L 2279 497 L 2280 497 L 2281 496 L 2282 496 L 2283 495 L 2284 495 L 2286 493 L 2287 493 L 2288 492 L 2289 492 L 2290 491 L 2291 491 L 2292 490 L 2293 490 L 2294 489 L 2295 489 L 2296 488 L 2297 488 L 2298 487 L 2299 487 L 2300 486 L 2301 486 L 2302 485 L 2304 485 L 2305 484 L 2306 484 L 2307 483 L 2308 483 L 2309 482 L 2310 482 L 2311 481 L 2312 481 L 2313 480 L 2314 480 L 2315 479 L 2316 479 L 2319 476 L 2319 475 L 2320 474 L 2320 472 L 2321 471 L 2321 467 L 2320 466 L 2320 464 L 2319 463 L 2319 462 L 2315 458 L 2313 458 L 2312 457 L 2311 457 L 2310 456 L 2309 456 L 2308 455 L 2307 455 L 2306 454 L 2305 454 L 2304 453 L 2303 453 L 2302 452 L 2301 452 L 2300 451 L 2299 451 L 2298 450 L 2296 450 L 2295 449 L 2294 449 L 2293 448 L 2292 448 L 2291 447 L 2290 447 L 2288 445 L 2287 445 L 2286 444 L 2285 444 L 2284 443 L 2283 443 L 2282 442 L 2281 442 L 2280 441 L 2279 441 L 2278 440 L 2277 440 L 2275 438 L 2274 438 L 2273 437 L 2272 437 L 2271 436 L 2270 436 L 2268 434 L 2267 434 L 2266 433 L 2265 433 L 2263 431 L 2262 431 L 2261 430 L 2260 430 L 2258 428 L 2257 428 L 2255 426 L 2254 426 L 2252 424 L 2251 424 L 2249 422 L 2248 422 L 2245 419 L 2244 419 L 2241 416 L 2240 416 L 2236 412 L 2235 412 L 2231 408 L 2230 408 L 2206 384 L 2206 383 L 2201 378 L 2201 377 L 2197 373 L 2197 372 L 2194 369 L 2194 368 L 2192 366 L 2192 365 L 2190 363 L 2190 362 L 2187 359 L 2187 358 L 2186 357 L 2186 356 L 2184 354 L 2184 353 L 2182 351 L 2182 350 L 2181 349 L 2181 348 L 2179 346 L 2179 345 L 2178 344 L 2178 343 L 2176 341 L 2176 340 L 2175 339 L 2175 338 L 2174 337 L 2174 336 L 2172 334 L 2172 333 L 2171 332 L 2171 331 L 2170 330 L 2170 329 L 2169 328 L 2169 327 L 2168 326 L 2168 325 L 2167 324 L 2167 323 L 2166 322 L 2166 321 L 2165 320 L 2165 319 L 2164 318 L 2164 317 L 2163 316 L 2163 315 L 2162 314 L 2162 313 L 2161 312 L 2161 311 L 2160 310 L 2160 309 L 2159 308 L 2159 307 L 2158 306 L 2158 305 L 2157 304 L 2157 302 L 2156 301 L 2156 300 L 2155 299 L 2155 298 L 2151 294 L 2150 294 L 2149 293 Z M 652 0 L 651 1 L 649 1 L 648 2 L 647 2 L 645 4 L 644 4 L 643 5 L 643 6 L 641 8 L 641 9 L 640 10 L 640 11 L 639 12 L 639 13 L 638 14 L 638 15 L 637 16 L 637 18 L 636 19 L 636 20 L 635 21 L 635 22 L 634 23 L 634 24 L 633 25 L 633 26 L 632 27 L 632 28 L 631 29 L 631 30 L 630 31 L 630 32 L 629 33 L 629 34 L 628 35 L 628 36 L 627 37 L 627 38 L 626 39 L 626 40 L 625 41 L 625 42 L 624 43 L 624 44 L 623 45 L 623 46 L 622 47 L 622 48 L 621 49 L 621 50 L 620 51 L 620 52 L 619 53 L 619 54 L 618 55 L 618 56 L 617 57 L 617 58 L 616 59 L 616 60 L 615 61 L 615 62 L 613 64 L 613 65 L 612 66 L 612 67 L 611 68 L 611 69 L 609 71 L 609 72 L 608 73 L 608 74 L 607 75 L 607 76 L 605 78 L 605 79 L 604 80 L 604 81 L 602 83 L 602 84 L 601 85 L 601 86 L 599 88 L 599 89 L 597 91 L 597 92 L 596 93 L 596 94 L 594 96 L 594 97 L 592 99 L 592 100 L 590 102 L 590 103 L 588 105 L 588 106 L 585 109 L 585 110 L 583 112 L 583 113 L 580 116 L 580 117 L 577 120 L 577 121 L 574 124 L 574 125 L 569 130 L 569 131 L 564 136 L 564 137 L 555 146 L 555 147 L 539 163 L 538 163 L 530 171 L 529 171 L 523 177 L 522 177 L 518 181 L 517 181 L 514 184 L 513 184 L 510 187 L 509 187 L 506 190 L 505 190 L 502 193 L 501 193 L 499 195 L 498 195 L 496 197 L 495 197 L 493 199 L 492 199 L 490 201 L 489 201 L 487 203 L 486 203 L 484 205 L 483 205 L 481 207 L 480 207 L 479 208 L 478 208 L 476 210 L 475 210 L 474 211 L 473 211 L 471 213 L 470 213 L 469 214 L 468 214 L 467 215 L 466 215 L 464 217 L 463 217 L 462 218 L 461 218 L 460 219 L 459 219 L 457 221 L 456 221 L 455 222 L 454 222 L 453 223 L 452 223 L 451 224 L 450 224 L 449 225 L 448 225 L 447 226 L 446 226 L 444 228 L 443 228 L 442 229 L 441 229 L 440 230 L 439 230 L 438 231 L 437 231 L 436 232 L 435 232 L 434 233 L 433 233 L 432 234 L 431 234 L 430 235 L 429 235 L 428 236 L 427 236 L 426 237 L 425 237 L 424 238 L 423 238 L 422 239 L 420 239 L 419 240 L 418 240 L 417 241 L 416 241 L 415 242 L 414 242 L 413 243 L 412 243 L 411 244 L 410 244 L 409 245 L 408 245 L 407 246 L 405 246 L 404 247 L 403 247 L 402 248 L 401 248 L 399 250 L 398 250 L 397 251 L 397 252 L 395 254 L 395 255 L 394 256 L 394 257 L 393 258 L 393 262 L 392 263 L 392 265 L 393 266 L 393 270 L 394 271 L 394 272 L 395 273 L 395 274 L 400 279 L 401 279 L 402 280 L 403 280 L 404 281 L 405 281 L 406 282 L 407 282 L 408 283 L 409 283 L 410 284 L 411 284 L 412 285 L 414 285 L 415 286 L 416 286 L 417 287 L 418 287 L 419 288 L 420 288 L 421 289 L 422 289 L 423 290 L 424 290 L 425 291 L 426 291 L 427 292 L 428 292 L 429 293 L 430 293 L 431 294 L 432 294 L 433 295 L 434 295 L 435 296 L 436 296 L 437 297 L 438 297 L 439 298 L 440 298 L 441 299 L 442 299 L 443 300 L 444 300 L 445 301 L 446 301 L 447 302 L 448 302 L 449 303 L 450 303 L 452 305 L 453 305 L 454 306 L 455 306 L 456 307 L 457 307 L 458 308 L 459 308 L 460 309 L 461 309 L 463 311 L 464 311 L 465 312 L 466 312 L 467 313 L 468 313 L 470 315 L 471 315 L 472 316 L 473 316 L 475 318 L 476 318 L 477 319 L 478 319 L 480 321 L 481 321 L 483 323 L 484 323 L 485 324 L 486 324 L 488 326 L 489 326 L 491 328 L 492 328 L 494 330 L 495 330 L 497 332 L 498 332 L 501 335 L 502 335 L 504 337 L 505 337 L 508 340 L 509 340 L 512 343 L 513 343 L 516 346 L 517 346 L 521 350 L 522 350 L 527 355 L 528 355 L 536 363 L 537 363 L 558 384 L 558 385 L 565 392 L 565 393 L 570 398 L 570 399 L 574 403 L 574 404 L 578 408 L 578 409 L 581 412 L 581 413 L 583 415 L 583 416 L 586 419 L 586 420 L 588 422 L 588 423 L 590 425 L 590 426 L 592 428 L 592 429 L 594 431 L 594 432 L 596 434 L 596 435 L 598 437 L 598 438 L 600 440 L 600 441 L 601 442 L 601 443 L 603 445 L 603 446 L 604 447 L 604 448 L 606 450 L 606 451 L 607 452 L 607 453 L 608 454 L 608 455 L 610 457 L 610 458 L 611 459 L 611 460 L 612 461 L 612 462 L 614 464 L 614 465 L 615 466 L 615 467 L 616 468 L 616 469 L 617 470 L 617 471 L 618 472 L 618 473 L 619 474 L 619 475 L 620 476 L 620 477 L 622 479 L 622 480 L 623 481 L 623 482 L 624 483 L 624 484 L 625 485 L 625 486 L 626 487 L 626 488 L 627 489 L 627 490 L 628 491 L 628 492 L 629 493 L 629 494 L 630 495 L 630 497 L 631 498 L 631 499 L 632 500 L 632 501 L 633 502 L 633 503 L 634 504 L 634 505 L 635 506 L 635 507 L 636 508 L 636 509 L 637 510 L 637 511 L 638 512 L 638 514 L 639 515 L 639 516 L 640 517 L 640 518 L 641 519 L 641 520 L 647 526 L 648 526 L 649 527 L 651 527 L 652 528 L 661 528 L 662 527 L 664 527 L 665 526 L 666 526 L 672 520 L 672 519 L 673 518 L 673 517 L 674 516 L 674 515 L 675 514 L 675 513 L 676 512 L 676 510 L 677 509 L 677 508 L 678 507 L 678 506 L 679 505 L 679 504 L 680 503 L 680 502 L 681 501 L 681 500 L 682 499 L 682 498 L 683 497 L 683 496 L 684 495 L 684 494 L 685 493 L 685 492 L 686 491 L 686 490 L 687 489 L 687 488 L 688 487 L 688 486 L 689 485 L 689 484 L 690 483 L 690 482 L 691 481 L 691 480 L 692 479 L 692 478 L 693 477 L 693 476 L 694 475 L 694 474 L 695 473 L 695 472 L 696 471 L 696 470 L 697 469 L 697 468 L 698 467 L 698 466 L 700 464 L 700 463 L 701 462 L 701 461 L 702 460 L 702 459 L 704 457 L 704 456 L 705 455 L 705 454 L 706 453 L 706 452 L 708 450 L 708 449 L 709 448 L 709 447 L 711 445 L 711 444 L 712 443 L 712 442 L 714 440 L 714 439 L 715 438 L 715 437 L 717 435 L 717 434 L 719 432 L 719 431 L 721 429 L 721 428 L 723 426 L 723 425 L 725 423 L 725 422 L 727 420 L 727 419 L 730 416 L 730 415 L 733 412 L 733 411 L 736 408 L 736 407 L 739 404 L 739 403 L 743 399 L 743 398 L 748 393 L 748 392 L 757 383 L 757 382 L 775 364 L 776 364 L 784 356 L 785 356 L 790 351 L 791 351 L 795 347 L 796 347 L 800 343 L 801 343 L 804 340 L 805 340 L 808 337 L 809 337 L 811 335 L 812 335 L 814 333 L 815 333 L 818 330 L 819 330 L 821 328 L 822 328 L 824 326 L 825 326 L 826 325 L 827 325 L 829 323 L 830 323 L 832 321 L 833 321 L 835 319 L 836 319 L 837 318 L 838 318 L 840 316 L 841 316 L 842 315 L 843 315 L 844 314 L 845 314 L 847 312 L 848 312 L 849 311 L 850 311 L 851 310 L 852 310 L 854 308 L 855 308 L 856 307 L 857 307 L 858 306 L 859 306 L 860 305 L 861 305 L 863 303 L 864 303 L 865 302 L 866 302 L 867 301 L 868 301 L 869 300 L 870 300 L 871 299 L 872 299 L 873 298 L 874 298 L 875 297 L 876 297 L 877 296 L 878 296 L 879 295 L 880 295 L 881 294 L 882 294 L 883 293 L 884 293 L 885 292 L 886 292 L 887 291 L 888 291 L 889 290 L 890 290 L 891 289 L 892 289 L 893 288 L 894 288 L 895 287 L 896 287 L 897 286 L 899 286 L 900 285 L 901 285 L 902 284 L 903 284 L 904 283 L 905 283 L 906 282 L 907 282 L 908 281 L 909 281 L 910 280 L 911 280 L 912 279 L 913 279 L 918 274 L 918 273 L 919 272 L 919 271 L 920 270 L 920 267 L 921 266 L 921 262 L 920 261 L 920 258 L 919 257 L 919 255 L 917 253 L 917 252 L 915 250 L 914 250 L 912 248 L 911 248 L 910 247 L 909 247 L 908 246 L 907 246 L 906 245 L 904 245 L 903 244 L 902 244 L 901 243 L 900 243 L 899 242 L 898 242 L 897 241 L 896 241 L 895 240 L 894 240 L 893 239 L 892 239 L 891 238 L 889 238 L 888 237 L 887 237 L 886 236 L 885 236 L 884 235 L 883 235 L 882 234 L 881 234 L 880 233 L 879 233 L 878 232 L 877 232 L 876 231 L 875 231 L 874 230 L 873 230 L 872 229 L 871 229 L 869 227 L 868 227 L 867 226 L 866 226 L 865 225 L 864 225 L 863 224 L 862 224 L 861 223 L 860 223 L 859 222 L 858 222 L 857 221 L 856 221 L 854 219 L 853 219 L 852 218 L 851 218 L 850 217 L 849 217 L 847 215 L 846 215 L 845 214 L 844 214 L 843 213 L 842 213 L 840 211 L 839 211 L 838 210 L 837 210 L 835 208 L 834 208 L 832 206 L 831 206 L 830 205 L 829 205 L 827 203 L 826 203 L 824 201 L 823 201 L 821 199 L 820 199 L 818 197 L 817 197 L 815 195 L 814 195 L 811 192 L 810 192 L 808 190 L 807 190 L 804 187 L 803 187 L 800 184 L 799 184 L 795 180 L 794 180 L 790 176 L 789 176 L 784 171 L 783 171 L 773 161 L 772 161 L 759 148 L 759 147 L 750 138 L 750 137 L 744 131 L 744 130 L 740 126 L 740 125 L 736 121 L 736 120 L 733 117 L 733 116 L 731 114 L 731 113 L 728 110 L 728 109 L 726 107 L 726 106 L 723 103 L 723 102 L 721 100 L 721 99 L 719 97 L 719 96 L 718 95 L 718 94 L 716 92 L 716 91 L 714 89 L 714 88 L 712 86 L 712 85 L 711 84 L 711 83 L 709 81 L 709 80 L 708 79 L 708 78 L 706 76 L 706 75 L 705 74 L 705 73 L 704 72 L 704 71 L 702 69 L 702 68 L 701 67 L 701 66 L 700 65 L 700 64 L 699 63 L 699 62 L 698 61 L 698 60 L 696 58 L 696 57 L 695 56 L 695 55 L 694 54 L 694 53 L 693 52 L 693 51 L 692 50 L 692 49 L 691 48 L 691 47 L 690 46 L 690 45 L 689 44 L 689 43 L 688 42 L 688 41 L 687 40 L 687 39 L 686 38 L 686 37 L 685 36 L 685 35 L 684 34 L 684 33 L 683 32 L 683 31 L 682 30 L 682 29 L 681 28 L 681 27 L 680 26 L 680 25 L 679 24 L 679 23 L 678 22 L 678 20 L 677 19 L 677 18 L 676 17 L 676 16 L 675 15 L 675 14 L 674 13 L 674 12 L 673 11 L 673 10 L 672 9 L 672 8 L 671 7 L 671 6 L 669 4 L 668 4 L 666 2 L 665 2 L 664 1 L 662 1 L 661 0 Z" fill="black"/>
</svg>